<?xml version="1.0" encoding="iso-8859-1"?>
<!-- Generator: Adobe Illustrator 19.0.0, SVG Export Plug-In . SVG Version: 6.00 Build 0)  -->
<svg version="1.1" id="Layer_1" xmlns="http://www.w3.org/2000/svg" xmlns:xlink="http://www.w3.org/1999/xlink" x="0px" y="0px"
	 viewBox="0 0 491.51 491.51" style="enable-background:new 0 0 491.51 491.51;" xml:space="preserve">
<rect x="61.955" y="474.266" style="fill:#D5D6DB;" />
<polygon style="fill:#EBF0F3;" points="342.891,0 61.97,0 61.97,474.274 429.555,474.274 429.555,86.968 "/>
<polygon style="fill:#E1E6E9;" points="342.891,86.968 429.555,86.968 342.891,0 "/>

	<rect x="92.004" y="320.358" style="fill:#D5D6DB;" width="307.507" height="16.671"/>
	<rect x="92.004" y="368.896" style="fill:#D5D6DB;" width="307.507" height="16.671"/>
	<rect x="92.004" y="271.821" style="fill:#D5D6DB;" width="250.88" height="16.671"/>
	<rect x="92.004" y="223.304" style="fill:#D5D6DB;" width="307.507" height="16.671"/>
	<rect x="92.004" y="174.797" style="fill:#D5D6DB;" width="307.507" height="16.676"/>
	<rect x="92.004" y="417.434" style="fill:#D5D6DB;" width="139.991" height="16.671"/>
	<polygon style="fill:#D5D6DB;" points="342.891,86.968 429.555,159.619 429.555,86.968 	"/>

<rect x="92.004" y="20.531" style="fill:#27A2DB;" width="100.746" height="118.682"/>

	<circle style="fill:#2D93BA;" cx="142.374" cy="59.453" r="21.391"/>
	<path style="fill:#2D93BA;" d="M142.376,88.861c-27.821,0-50.374,22.552-50.374,50.372h100.745
		C192.747,111.413,170.195,88.861,142.376,88.861z"/>
</svg>
