<?xml version="1.0" encoding="iso-8859-1"?>
<!-- Generator: Adobe Illustrator 19.0.0, SVG Export Plug-In . SVG Version: 6.00 Build 0)  -->
<svg version="1.1" id="Layer_1" xmlns="http://www.w3.org/2000/svg" xmlns:xlink="http://www.w3.org/1999/xlink" x="0px" y="0px"
	 viewBox="0 0 509.876 509.876" style="enable-background:new 0 0 509.876 509.876;" xml:space="preserve">
<g>
	<g>
		<g>
			<path d="M496.742,437.095L383.266,322.16l-12.109,12.109l-62.456-62.464c20.924-28.322,33.323-63.3,33.323-101.137
				c0-0.111-0.017-0.222-0.017-0.341l-30.217-0.145l-2.509-2.645c-3.422-3.61-5.658-5.146-6.844-5.803
				c-1.638,3.285-2.748,11.537-3.251,15.309c-0.836,6.221-1.382,10.325-3.388,13.431c-8.815,13.679-20.506,16.606-28.757,16.657
				h-0.205c-19.251,0-37.999-15.104-47.309-29.175c-3.191-4.855-4.087-10.112-4.727-13.952c-0.085-0.478-0.162-1.007-0.265-1.519
				c-1.203,0.35-2.978,0.99-5.521,2.142l-1.468,0.683c-19.507,9.028-24.653,10.709-39.552-0.725
				c-5.495-4.224-7.501-9.771-8.969-13.824c-0.469-1.289-1.169-3.217-1.604-3.738c-0.009,0.009-0.23-0.017-0.751-0.017
				c-0.853,0-2.466,0.102-5.154,0.751c-14.643,3.482-23.893,5.137-28.689-1.408c-4.378-5.948-0.597-12.279,2.432-17.365
				c4.574-7.689,8.115-14.652,5.052-21.982c-1.203-2.85-4.898-11.614,1.152-17.502c6.741-6.562,16.751-2.005,29.448,3.772
				c4.975,2.261,13.269,6.042,15.974,6.042h0.068c0.879-0.427,2.27-2.338,2.901-4.941c0.785-3.251,0.154-6.69-1.579-8.55
				c-7.39-7.902-5.154-21.316,1.792-28.023c5.7-5.521,16.205-8.115,27.059,2.739l0.717,0.572c1.664-0.017,7.458-5.171,10.283-14.677
				c1.536-5.146,1.954-11.383-0.879-14.788c-3.063,0.845-8.73,3.277-12.706,4.983c-9.011,3.874-17.527,7.535-23.979,7.535
				c-0.085-0.009-0.154-0.009-0.23,0c-9.805,0-18.697,6.383-28.117,13.133c-5.726,4.113-11.648,8.363-18.227,11.546
				c-10.334,5.001-21.99,2.611-29.722-6.101c-7.782-8.772-8.815-21.205-2.577-30.942c1.143-2.022,4.233-10.001,7.936-20.062
				C45.978,36.549,0.691,98.356,0.691,170.668c0,27.46,6.682,53.333,18.244,76.339l11.563-10.573l17.732-17.749
				c0.649-0.648,1.399-1.186,2.21-1.604l18.022-9.003c0.555-0.282,1.143-0.495,1.749-0.648l36.036-9.011
				c2.236-0.572,4.634-0.179,6.605,1.058l13.133,8.26l20.898,5.598h24.474c0.922,0,1.826,0.145,2.705,0.444l25.6,8.533
				c3.482,1.161,5.828,4.42,5.828,8.09v17.067h34.133c4.719,0,8.533,3.823,8.533,8.533v25.6c0,2.261-0.896,4.437-2.5,6.033
				l-23.1,23.1v22.733c18.133-5.717,34.927-14.447,49.903-25.498l62.498,62.507l-12.023,12.032L436.36,497.4
				c8.32,8.311,19.243,12.476,30.165,12.476c10.931,0,21.862-4.164,30.174-12.476C513.34,480.769,513.34,453.693,496.742,437.095z
				 M347.025,358.401l-61.21-61.218c0.802-0.725,1.51-1.562,2.313-2.313c2.347-2.21,4.617-4.506,6.852-6.852
				c0.939-0.99,1.98-1.886,2.901-2.901l61.21,61.218L347.025,358.401z"/>
			<path d="M231.095,264.537h-34.133c-4.719,0-8.533-3.823-8.533-8.533v-19.447l-18.449-6.153h-24.218
				c-0.751,0-1.493-0.094-2.21-0.29l-23.219-6.229c-0.828-0.222-1.613-0.563-2.338-1.015l-11.145-7.006l-31.599,7.893l-15.932,7.97
				l-17.033,17.033l-14.72,13.466c30.345,47.479,83.388,79.113,143.795,79.113c11.682,0,23.1-1.195,34.133-3.439v-30.694
				c0-2.261,0.896-4.437,2.5-6.033l23.1-23.1V264.537z"/>
			<path d="M126.553,53.478c5.257-2.543,10.342-6.195,15.718-10.052c10.675-7.654,22.775-16.333,38.067-16.333h0.222h0.017
				c2.935,0,11.887-3.849,17.237-6.144c12.663-5.444,21.052-9.028,27.409-4.83c8.457,5.572,12.407,15.727,10.829,27.861
				c-1.681,12.996-10.146,29.056-22.519,33.212c-6.647,2.236-13.406,0.538-18.526-4.642c-2.236-2.244-3.473-2.432-3.482-2.432
				c-0.401,0.478-1.101,3.268-0.623,4.267c5.513,5.854,7.689,15.138,5.538,24.013c-1.988,8.201-7.441,14.626-14.566,17.169
				c-7.364,2.637-16.956-1.724-28.032-6.767c-1.784-0.811-3.917-1.783-5.99-2.679c2.185,10.249-1.28,19.379-4.779,26.061
				c1.314-0.29,2.807-0.631,4.471-1.024c20.693-4.975,25.148,7.228,27.529,13.79c1.101,3.055,1.852,4.983,3.328,6.11
				c7.253,5.581,7.262,5.581,21.973-1.229l1.519-0.708c7.031-3.208,15.07-6.007,21.641-2.5c6.204,3.285,7.296,9.796,8.09,14.549
				c0.486,2.859,0.947,5.555,2.142,7.381c7.006,10.59,21.274,21.513,33.067,21.513h0.111c5.956-0.043,10.701-2.927,14.507-8.841
				c-0.009-0.299,0.469-3.857,0.819-6.451c1.57-11.674,3.516-26.197,14.771-29.841c8.482-2.722,16.256,2.714,22.007,8.218
				l22.093,0.111C332.394,67.302,259.596,0,171.361,0c-14.242,0-27.998,1.946-41.233,5.248
				c-6.042,16.845-11.998,32.538-14.063,35.763c-2.551,3.977-1.169,7.979,0.973,10.394
				C118.011,52.506,121.569,55.885,126.553,53.478z"/>
		</g>
	</g>
</g>
<g>
</g>
<g>
</g>
<g>
</g>
<g>
</g>
<g>
</g>
<g>
</g>
<g>
</g>
<g>
</g>
<g>
</g>
<g>
</g>
<g>
</g>
<g>
</g>
<g>
</g>
<g>
</g>
<g>
</g>
</svg>
